# xmcd CD database file generated by OrangeCD 5.1
#
# Track frame offsets:
#	150
#	20422
#	39520
#	59177
#	77842
#	105830
#	126247
#	147507
#
# Disc length: 2650 seconds
#
# Revision: 0
# Processed by: cddbd v1.4PL0 Copyright (c) Steve Scherf et al.
# Submitted via: OrangeCD 5.1
#
DISCID=6c0a5808
DTITLE=Tom Larsen - Can't Keep a Baad Man Down
DYEAR=2000
DGENRE=Rock
TTITLE0=Bad Man Down
TTITLE1=In My Hand
TTITLE2=It's A Good Thang
TTITLE3=Watchin' the Clock
TTITLE4=Phat's Where It's At
TTITLE5=Can't Help It
TTITLE6=Route 13
TTITLE7=Fored Up
EXTD=
EXTT0=
EXTT1=
EXTT2=
EXTT3=
EXTT4=
EXTT5=
EXTT6=
EXTT7=
PLAYORDER=
